# AST/ASF file generated using VICON BodyLanguage
# -----------------------------------------------
:version 1.10
:name VICON
:units
  mass 1.0
  length 0.45
  angle deg
:documentation
   .ast/.asf automatically generated from VICON data using
   VICON BodyBuilder and BodyLanguage model FoxedUp or BRILLIANT.MOD
:root
   order TX TY TZ RX RY RZ
   axis XYZ
   position 0 0 0  
   orientation 0 0 0 
:bonedata
  begin
     id 1 
     name lhipjoint
     direction 0.78388 -0.462562 0.414208 
     length 3.01181 
     axis 0 0 0  XYZ
  end
  begin
     id 2 
     name lfemur
     direction 0.34202 -0.939693 0  
     length 6.04673  
     axis 0 0 20  XYZ
    dof rx ry rz
    limits (-160.0 20.0)
           (-70.0 70.0)
           (-60.0 70.0)
  end
  begin
     id 3 
     name ltibia
     direction 0.34202 -0.939693 0   
     length 7.211   
     axis 0 0 20   XYZ
    dof rx
    limits (-10.0 170.0)
  end
  begin
     id 4 
     name lfoot
     direction 0.121887 -0.334882 0.934344   
     length 2.13567   
     axis -90 7.62852e-016 20   XYZ
    dof rx rz
    limits (-45.0 90.0)
           (-70.0 20.0)
  end
  begin
     id 5 
     name ltoes
     direction 1.53555e-011 -4.2179e-011 1   
     length 1.05957   
     axis -90 7.62852e-016 20   XYZ
    dof rx
    limits (-90.0 20.0)
  end
  begin
     id 6 
     name rhipjoint
     direction -0.769387 -0.475875 0.426129   
     length 2.92756  
     axis 0 0 0  XYZ 
  end
  begin
     id 7 
     name rfemur
     direction -0.34202 -0.939693 0   
     length 6.35468   
     axis 0 0 -20   XYZ
    dof rx ry rz
    limits (-160.0 20.0)
           (-70.0 70.0)
           (-70.0 60.0)
  end
  begin
     id 8 
     name rtibia
     direction -0.34202 -0.939693 0   
     length 7.37886   
     axis 0 0 -20   XYZ
    dof rx
    limits (-10.0 170.0)
 end
 begin
     id 9 
     name rfoot
     direction -0.101763 -0.279592 0.954711   
     length 2.21478  
     axis -90 -7.62852e-016 -20   XYZ
    dof rx rz
    limits (-45.0 90.0)
           (-20.0 70.0)
  end
  begin
     id 10 
     name rtoes
     direction -1.53494e-011 -4.21851e-011 1   
     length 1.10506   
     axis -90 -7.62852e-016 -20   XYZ
    dof rx
    limits (-90.0 20.0)
  end
  begin
     id 11 
     name lowerback
     direction 0.00747405 0.999267 0.0375481   
     length 2.13259   
     axis 0 0 0   XYZ
    dof rx ry rz
    limits (-20.0 45.0)
           (-30.0 30.0)
           (-30.0 30.0)
  end
  begin
     id 12 
     name upperback
     direction 0.00661626 0.996177 0.0871029   
     length 2.10528   
     axis 0 0 0   XYZ
    dof rx ry rz
    limits (-20.0 45.0)
           (-30.0 30.0)
           (-30.0 30.0)
  end
  begin
     id 13 
     name thorax
     direction 0.00320659 0.997679 0.0680167   
     length 2.11338   
     axis 0 0 0   XYZ
    dof rx ry rz
    limits (-20.0 45.0)
           (-30.0 30.0)
           (-30.0 30.0)
  end
  begin
     id 14 
     name lowerneck
     direction 0.0374841 0.973033 0.227602   
     length 1.42765   
     axis 0 0 0   XYZ
    dof rx ry rz
    limits (-20.0 45.0)
           (-30.0 30.0)
           (-30.0 30.0)
  end
  begin
     id 15 
     name upperneck
     direction 0.00481585 0.989155 -0.146795   
     length 1.47593   
     axis 0 0 0   XYZ
    dof rx ry rz
    limits (-20.0 45.0)
           (-30.0 30.0)
           (-30.0 30.0)
  end
  begin
     id 16
     name head
     direction -0.00292522 0.997206 -0.0746423  
     length 1.48116  
     axis 0 0 0   XYZ
    dof rx ry rz
    limits (-20.0 45.0)
           (-30.0 30.0)
           (-30.0 30.0)
  end
  begin
     id 17 
     name lclavicle
     direction 0.951444 0.305606 0.0368784  
     length 3.01855  
     axis 0 0 0   XYZ
    dof ry rz
    limits (-20.0 10.0)
           (0.0 20.0)
  end
  begin
     id 18 
     name lhumerus
     direction 1 -4.48977e-011 2.61664e-027   
     length 5.52731   
     axis 180 -30 -90   XYZ
    dof rx ry rz
    limits (-60.0 90.0)
           (-90.0 90.0)
           (-90.0 90.0)
  end
  begin
     id 19
     name lradius
     direction 1 -4.48944e-011 8.22157e-027   
     length 3.11059   
     axis 180 -30 -90   XYZ
    dof rx
    limits (-10.0 170.0)
  end
  begin
     id 20
     name lwrist
     direction 1 -4.48976e-011 1.5779e-026   
     length 1.5553   
     axis -1.15221e-014 90 90   XYZ
    dof ry
    limits (-180.0 0.0)
 end
  begin
     id 21 
     name lhand
     direction 1 -4.49025e-011 3.1558e-026   
     length 0.419626   
     axis -2.01367e-014 90 90   XYZ
    dof rx rz
    limits (-90.0 90.0)
           (-45.0 45.0)
  end
  begin
     id 22 
     name lfingers
     direction 1 -4.4904e-011 6.31161e-026   
     length 0.338313   
     axis -4.02734e-014 90 90   XYZ
    dof rx
    limits (0.0 90.0)
  end
  begin
     id 23
     name lthumb
     direction 0.707107 -6.35004e-011 0.707107   
     length 0.485752   
     axis -90 45 2.85299e-015   XYZ
    dof rx rz
    limits (-45.0 45.0)
           (-45.0 45.0)
  end
  begin
     id 24 
     name rclavicle
     direction -0.968876 0.223791 0.105816   
     length 3.04177  
     axis 0 0 0   XYZ 
    dof ry rz
    limits (-10.0 20.0)
           (-20.0 0.0)
  end
  begin
     id 25 
     name rhumerus
     direction -1 -4.48962e-011 -1.01384e-027  
     length 5.25396   
     axis 180 30 90   XYZ
    dof rx ry rz
    limits (-90.0 60.0)
           (-90.0 90.0)
           (-90.0 90.0)
  end
  begin
     id 26 
     name rradius
     direction -1 -4.48955e-011 8.88542e-027   
     length 3.10567   
     axis 180 30 90   XYZ
    dof rx
    limits (-10.0 170.0)
  end
  begin
     id 27 
     name rwrist
     direction -1 -4.48994e-011 1.5779e-026   
     length 1.55283   
     axis -1.15221e-014 -90 -90   XYZ
    dof ry
    limits (-180.0 0.0)
  end
  begin
     id 28
     name rhand
     direction -1 -4.48891e-011 3.1558e-026   
     length 0.498676   
     axis -2.01367e-014 -90 -90   XYZ
    dof rx rz
    limits (-90.0 90.0)
           (-45.0 45.0)
  end
  begin
     id 29
     name rfingers
     direction -1 -4.48972e-011 6.31161e-026   
     length 0.402045   
     axis -4.02734e-014 -90 -90   XYZ
    dof rx
    limits (0.0 90.0)
  end
  begin
     id 30
     name rthumb
     direction -0.707107 -6.34849e-011 0.707107   
     length 0.577259   
     axis -90 -45 -2.85299e-015   XYZ
    dof rx rz
    limits (-45.0 45.0)
           (-45.0 45.0)
  end
:hierarchy
  begin
    root lhipjoint rhipjoint lowerback
    lhipjoint lfemur
    lfemur ltibia
    ltibia lfoot
    lfoot ltoes
    rhipjoint rfemur
    rfemur rtibia
    rtibia rfoot
    rfoot rtoes
    lowerback upperback
    upperback thorax
    thorax lowerneck lclavicle rclavicle
    lowerneck upperneck
    upperneck head
    lclavicle lhumerus
    lhumerus lradius
    lradius lwrist
    lwrist lhand lthumb
    lhand lfingers
    rclavicle rhumerus
    rhumerus rradius
    rradius rwrist
    rwrist rhand rthumb
    rhand rfingers
  end

#!OML:ASF H:\Pregnant\Project 1\Capture day 1\Session 1\femalepreg.ASF
:FULLY-SPECIFIED
:DEGREES
81
root -6.34684 15.3846 25.3388 -161.085 -0.498372 -179.987
lowerback -20.2495 1.03887 -8.21331
upperback -2.45869 2.80681 -1.86625
thorax 8.32243 0.873646 3.34755
lowerneck -17.1768 1.99726 1.86188
upperneck 34.53 -5.44136 11.0743
head 15.4162 -1.7134 3.05695
rclavicle -2.87244e-014 -7.15625e-015
rhumerus -33.3035 2.86638 -84.6538
rradius 24.3653
rwrist -3.38237
rhand -23.0802 -21.5521
rfingers 7.12502
rthumb 3.36569 -51.5053
lclavicle -2.87244e-014 -7.15625e-015
lhumerus -28.5172 -28.2854 88.0202
lradius 31.6525
lwrist 36.6053
lhand -28.4928 -3.24488
lfingers 7.12502
lthumb -1.86187 26.7267
rfemur -27.6525 12.9268 20.3136
rtibia 59.7501
rfoot 1.14466 1.74729
rtoes -9.51587
lfemur -42.829 -12.3724 -15.6273
ltibia 25.4303
lfoot -4.34275 -0.150312
ltoes -10.8396
82
root -6.38796 15.398 25.2627 -161.111 -0.0990799 -180.375
lowerback -20.0653 1.1147 -8.72703
upperback -2.50248 2.99516 -2.0956
thorax 8.13591 0.950903 3.42552
lowerneck -17.2266 1.95364 1.74566
upperneck 34.4556 -5.39237 11.0209
head 15.3842 -1.70339 3.06322
rclavicle -1.09332e-015 2.14687e-014
rhumerus -33.028 3.939 -85.1235
rradius 24.5331
rwrist -4.10971
rhand -23.4255 -21.744
rfingers 7.12502
rthumb 3.03216 -51.7022
lclavicle -1.09332e-015 2.14687e-014
lhumerus -28.5565 -28.9785 87.7689
lradius 31.9017
lwrist 35.9304
lhand -28.1459 -3.26746
lfingers 7.12502
lthumb -1.52686 26.7068
rfemur -28.8062 12.3736 19.7486
rtibia 61.2492
rfoot 0.563428 1.1656
rtoes -10.5197
lfemur -42.0182 -12.1359 -16.4575
ltibia 24.8533
lfoot -4.53907 -0.213347
ltoes -10.672
83
root -6.4278 15.4093 25.1883 -161.176 0.280468 -180.783
lowerback -19.8397 0.443182 -8.96689
upperback -2.56229 3.34703 -2.31357
thorax 7.98311 1.63235 3.47917
lowerneck -17.2575 1.91589 1.63039
upperneck 34.3593 -5.33205 10.9764
head 15.3368 -1.68793 3.07418
rclavicle 4.87022e-015 -3.18055e-014
rhumerus -32.6866 4.98018 -85.6017
rradius 24.643
rwrist -4.73902
rhand -23.6184 -21.9238
rfingers 7.12502
rthumb 2.84587 -51.8846
lclavicle 4.87022e-015 -3.18055e-014
lhumerus -28.5873 -29.6669 87.4833
lradius 32.1607
lwrist 35.4322
lhand -27.8542 -3.30929
lfingers 7.12502
lthumb -1.24506 26.6668
rfemur -29.9281 11.8426 19.2029
rtibia 62.6774
rfoot -0.17841 0.346406
rtoes -11.49
lfemur -41.175 -11.9282 -17.2979
ltibia 24.2549
lfoot -4.71789 -0.280561
ltoes -10.4873
84
root -6.46603 15.4187 25.1152 -161.276 0.641563 -181.195
lowerback -19.5951 0.487753 -9.44632
upperback -2.56965 3.52126 -2.57141
thorax 7.81351 1.72238 3.49952
lowerneck -17.2916 1.8815 1.51821
upperneck 34.2376 -5.26585 10.9465
head 15.2784 -1.66674 3.09112
rclavicle -9.93923e-015 -1.59028e-014
rhumerus -32.2543 5.95792 -86.0819
rradius 24.6884
rwrist -5.22255
rhand -23.6439 -22.0959
rfingers 7.12502
rthumb 2.82123 -52.057
lclavicle -9.93923e-015 -1.59028e-014
lhumerus -28.5682 -30.3428 87.1392
lradius 32.4119
lwrist 35.1001
lhand -27.6071 -3.3626
lfingers 7.12502
lthumb -1.00644 26.6148
rfemur -31.0185 11.3548 18.6929
rtibia 64.02
rfoot -0.954618 -0.616622
rtoes -12.0542
lfemur -40.3153 -11.7402 -18.1306
ltibia 23.6667
lfoot -4.89283 -0.3501
ltoes -10.2883
85
root -6.50235 15.4262 25.0432 -161.405 0.985453 -181.598
lowerback -19.3335 0.534754 -9.89821
upperback -2.55524 3.6886 -2.83458
thorax 7.66047 1.80871 3.49501
lowerneck -17.3247 1.84711 1.40182
upperneck 34.0963 -5.19402 10.9221
head 15.2105 -1.6422 3.11154
rclavicle -1.67973e-014 -2.94201e-014
rhumerus -31.7341 6.85909 -86.5459
rradius 24.6619
rwrist -5.51971
rhand -23.5235 -22.2385
rfingers 7.12502
rthumb 2.93756 -52.198
lclavicle -1.67973e-014 -2.94201e-014
lhumerus -28.5093 -31.0062 86.7517
lradius 32.6586
lwrist 34.9398
lhand -27.4083 -3.43186
lfingers 7.12502
lthumb -0.814447 26.5463
rfemur -32.0838 10.9223 18.2282
rtibia 65.2628
rfoot -1.70091 -1.64215
rtoes -12.1192
lfemur -39.4651 -11.5659 -18.9379
ltibia 23.123
lfoot -5.07753 -0.414828
ltoes -10.0694
86
root -6.53669 15.4313 24.9723 -161.551 1.30216 -181.968
lowerback -19.0649 0.587208 -10.2923
upperback -2.52512 3.84846 -3.10356
thorax 7.52506 1.89208 3.44877
lowerneck -17.3456 1.81534 1.28531
upperneck 33.9325 -5.12125 10.9172
head 15.1303 -1.61525 3.13944
rclavicle 2.127e-014 -3.02153e-014
rhumerus -31.1364 7.68904 -87.0133
rradius 24.5736
rwrist -5.63904
rhand -23.2955 -22.3514
rfingers 7.12502
rthumb 3.15774 -52.3078
lclavicle 2.127e-014 -3.02153e-014
lhumerus -28.411 -31.6409 86.3051
lradius 32.8974
lwrist 34.9142
lhand -27.2567 -3.50658
lfingers 7.12502
lthumb -0.668011 26.4721
rfemur -33.1294 10.5483 17.8314
rtibia 66.3926
rfoot -2.40875 -2.67588
rtoes -11.8705
lfemur -38.6639 -11.3905 -19.6951
ltibia 22.6694
lfoot -5.28881 -0.485198
ltoes -9.8506
87
root -6.56932 15.4342 24.902 -161.71 1.58461 -182.283
lowerback -18.8063 0.642763 -10.6111
upperback -2.47035 3.99434 -3.36412
thorax 7.42755 1.96703 3.36636
lowerneck -17.3706 1.78734 1.17025
upperneck 33.7487 -5.03606 10.9115
head 15.0409 -1.58149 3.16841
rclavicle 5.19822e-014 -6.83819e-014
rhumerus -30.4538 8.47998 -87.4788
rradius 24.4419
rwrist -5.6029
rhand -22.9845 -22.4339
rfingers 7.12502
rthumb 3.45809 -52.3856
lclavicle 5.19822e-014 -6.83819e-014
lhumerus -28.2386 -32.2035 85.7908
lradius 33.1026
lwrist 34.9732
lhand -27.1359 -3.56034
lfingers 7.12502
lthumb -0.551368 26.4187
rfemur -34.1429 10.2271 17.5191
rtibia 67.3916
rfoot -3.10924 -3.67078
rtoes -11.5868
lfemur -37.9388 -11.213 -20.3799
ltibia 22.3504
lfoot -5.54837 -0.556138
ltoes -9.62485
